# xmcd
#
# Track frame offsets:
#	150
#	23292
#	66653
#	108437
#	150196
#
# Disc length: 2863 seconds
#
# Revision: 1
# Processed by: cddbd v1.5.2PL0 Copyright (c) Steve Scherf et al.
# Submitted via: EasyCDDAExtractor 7.0.6.1
#
DISCID=300b2d05
DTITLE=Eric Clapton and Friends - Live at Royal Albert Hall
DYEAR=1991
DGENRE=Blues
TTITLE0=Stranger Blues - Robert Cray
TTITLE1=Hoochie Coochie Man - Buddy Guy
TTITLE2=Little By Little - Buddy Guy
TTITLE3=My Time After A While - Buddy Guy
TTITLE4=Sweet Home Chicago
EXTD=
EXTT0=
EXTT1=
EXTT2=
EXTT3=
EXTT4=
PLAYORDER=
